<svg xmlns="http://www.w3.org/2000/svg" viewBox="0 0 320 320" role="img" aria-label="Sophia logo — 24kt gold S fused with a globe">
  <defs>
    <radialGradient id="sphere" cx="0.36" cy="0.32" r="0.85">
      <stop offset="0%" stop-color="#fff8d4"/>
      <stop offset="22%" stop-color="#f0d27a"/>
      <stop offset="55%" stop-color="#c89a3a"/>
      <stop offset="82%" stop-color="#7a4a10"/>
      <stop offset="100%" stop-color="#2a1604"/>
    </radialGradient>
    <radialGradient id="sphereOver" cx="0.32" cy="0.28" r="0.55">
      <stop offset="0%" stop-color="#fff5c2" stop-opacity="0.55"/>
      <stop offset="55%" stop-color="#fff5c2" stop-opacity="0.05"/>
      <stop offset="100%" stop-color="#fff5c2" stop-opacity="0"/>
    </radialGradient>
    <linearGradient id="ringOuter" x1="0" y1="0" x2="1" y2="1">
      <stop offset="0%" stop-color="#fff5c2"/>
      <stop offset="50%" stop-color="#d8b34f"/>
      <stop offset="100%" stop-color="#5e3608"/>
    </linearGradient>
    <linearGradient id="ringInner" x1="0" y1="1" x2="1" y2="0">
      <stop offset="0%" stop-color="#a07021"/>
      <stop offset="50%" stop-color="#f0d27a"/>
      <stop offset="100%" stop-color="#7a4a10"/>
    </linearGradient>
    <linearGradient id="sFill" x1="0.18" y1="0" x2="0.82" y2="1">
      <stop offset="0%" stop-color="#fff8d4"/>
      <stop offset="22%" stop-color="#f0d27a"/>
      <stop offset="50%" stop-color="#d8b34f"/>
      <stop offset="78%" stop-color="#a07021"/>
      <stop offset="100%" stop-color="#3a1f04"/>
    </linearGradient>
    <linearGradient id="sBevel" x1="0.15" y1="0.05" x2="0.5" y2="0.5">
      <stop offset="0%" stop-color="#fff8d4" stop-opacity="0.85"/>
      <stop offset="50%" stop-color="#fff5c2" stop-opacity="0.25"/>
      <stop offset="100%" stop-color="#fff5c2" stop-opacity="0"/>
    </linearGradient>
    <linearGradient id="continentTone" x1="0" y1="0" x2="0" y2="1">
      <stop offset="0%" stop-color="#7a4a10" stop-opacity="0.55"/>
      <stop offset="100%" stop-color="#2a1604" stop-opacity="0.65"/>
    </linearGradient>
    <linearGradient id="gridLine" x1="0" y1="0" x2="1" y2="1">
      <stop offset="0%" stop-color="#fff5c2" stop-opacity="0.35"/>
      <stop offset="100%" stop-color="#7a4a10" stop-opacity="0.2"/>
    </linearGradient>
    <filter id="emboss" x="-10%" y="-10%" width="120%" height="120%">
      <feGaussianBlur stdDeviation="0.6"/>
    </filter>
    <clipPath id="globeClip">
      <circle cx="160" cy="160" r="118"/>
    </clipPath>
  </defs>

  <circle cx="160" cy="160" r="148" fill="none" stroke="url(#ringOuter)" stroke-width="2.5"/>
  <circle cx="160" cy="160" r="138" fill="none" stroke="url(#ringInner)" stroke-width="1" opacity="0.7"/>

  <g>
    <circle cx="160" cy="12"  r="3" fill="url(#ringOuter)"/>
    <circle cx="160" cy="308" r="3" fill="url(#ringOuter)"/>
    <circle cx="12"  cy="160" r="3" fill="url(#ringOuter)"/>
    <circle cx="308" cy="160" r="3" fill="url(#ringOuter)"/>
  </g>

  <circle cx="160" cy="160" r="118" fill="url(#sphere)"/>

  <g clip-path="url(#globeClip)" opacity="0.62">
    <path d="M 165 96 C 175 90, 192 95, 196 110 C 198 122, 192 134, 198 144 C 204 156, 200 168, 192 178 C 184 190, 178 200, 178 214 C 172 224, 160 226, 152 220 C 142 212, 136 198, 144 186 C 152 174, 154 162, 148 152 C 142 140, 144 124, 152 116 C 158 108, 162 100, 165 96 Z" fill="url(#continentTone)"/>
    <path d="M 200 90 C 218 86, 234 96, 238 110 C 244 124, 238 136, 226 140 C 214 144, 208 134, 198 132 C 192 124, 196 112, 200 102 C 200 96, 198 92, 200 90 Z" fill="url(#continentTone)"/>
    <path d="M 122 110 C 134 102, 146 110, 144 122 C 142 132, 134 138, 124 134 C 116 130, 114 120, 122 110 Z" fill="url(#continentTone)"/>
    <path d="M 92 144 C 102 138, 116 144, 116 156 C 114 174, 104 192, 94 206 C 86 218, 76 220, 70 214 C 64 204, 70 188, 78 174 C 86 162, 84 152, 92 144 Z" fill="url(#continentTone)"/>
    <path d="M 86 110 C 96 102, 110 108, 110 120 C 108 130, 96 130, 88 124 C 82 120, 80 114, 86 110 Z" fill="url(#continentTone)"/>
    <ellipse cx="218" cy="208" rx="14" ry="6" fill="url(#continentTone)"/>
  </g>

  <g clip-path="url(#globeClip)" stroke="url(#gridLine)" stroke-width="0.7" fill="none" opacity="0.55">
    <line x1="42" y1="160" x2="278" y2="160"/>
    <ellipse cx="160" cy="118" rx="118" ry="14"/>
    <ellipse cx="160" cy="202" rx="118" ry="14"/>
    <ellipse cx="160" cy="86"  rx="98"  ry="8"/>
    <ellipse cx="160" cy="234" rx="98"  ry="8"/>
    <line x1="160" y1="42" x2="160" y2="278"/>
    <ellipse cx="160" cy="160" rx="40" ry="118"/>
    <ellipse cx="160" cy="160" rx="78" ry="118"/>
  </g>

  <circle cx="160" cy="160" r="118" fill="url(#sphereOver)"/>
  <circle cx="160" cy="160" r="118" fill="none" stroke="url(#ringInner)" stroke-width="2"/>

  <g>
    <path d="
      M 226 102
      C 226 70, 200 52, 162 52
      C 116 52, 86 76, 86 112
      C 86 142, 110 158, 162 168
      C 214 178, 234 198, 234 230
      C 234 264, 204 286, 162 286
      C 132 286, 108 274, 96 252
      C 94 248, 92 244, 92 240
      L 96 232
      L 104 234
      C 110 250, 130 264, 162 264
      C 196 264, 218 248, 218 226
      C 218 204, 200 196, 162 188
      C 110 178, 70 154, 70 114
      C 70 70, 102 38, 162 38
      C 212 38, 240 60, 240 96
      C 240 100, 240 102, 238 104
      L 230 104 Z"
      fill="url(#sFill)"/>
    <path d="
      M 226 102
      C 226 70, 200 52, 162 52
      C 116 52, 86 76, 86 112
      C 86 142, 110 158, 162 168
      C 214 178, 234 198, 234 230
      C 234 264, 204 286, 162 286
      C 132 286, 108 274, 96 252
      C 94 248, 92 244, 92 240
      L 96 232
      L 104 234
      C 110 250, 130 264, 162 264
      C 196 264, 218 248, 218 226
      C 218 204, 200 196, 162 188
      C 110 178, 70 154, 70 114
      C 70 70, 102 38, 162 38
      C 212 38, 240 60, 240 96
      C 240 100, 240 102, 238 104
      L 230 104 Z"
      fill="url(#sBevel)"
      opacity="0.7"/>
    <path d="
      M 230 96
      C 230 68, 206 50, 168 48
      C 134 46, 110 60, 100 80"
      fill="none" stroke="#fff8d4" stroke-width="1.2" stroke-linecap="round" opacity="0.6"/>
    <path d="
      M 90 240
      C 100 256, 124 268, 156 270
      C 188 270, 210 258, 220 240"
      fill="none" stroke="#3a1f04" stroke-width="1.2" stroke-linecap="round" opacity="0.55"/>
  </g>

  <g opacity="0.55">
    <path d="M 88 160 L 84 156 M 88 160 L 84 164" stroke="url(#ringOuter)" stroke-width="0.8" fill="none"/>
    <path d="M 232 160 L 236 156 M 232 160 L 236 164" stroke="url(#ringOuter)" stroke-width="0.8" fill="none"/>
  </g>
</svg>
