<svg xmlns="http://www.w3.org/2000/svg" viewBox="0 0 320 320" role="img" aria-label="Sophia logo — gold S fused with a globe and orbital ring">
  <defs>
    <radialGradient id="sphere" cx="0.34" cy="0.30" r="0.85">
      <stop offset="0%" stop-color="#fff8d4"/>
      <stop offset="20%" stop-color="#f0d27a"/>
      <stop offset="50%" stop-color="#c89a3a"/>
      <stop offset="78%" stop-color="#7a4a10"/>
      <stop offset="100%" stop-color="#1a0d02"/>
    </radialGradient>
    <radialGradient id="sphereGlow" cx="0.30" cy="0.25" r="0.55">
      <stop offset="0%" stop-color="#fff8d4" stop-opacity="0.65"/>
      <stop offset="60%" stop-color="#fff5c2" stop-opacity="0.05"/>
      <stop offset="100%" stop-color="#fff5c2" stop-opacity="0"/>
    </radialGradient>
    <linearGradient id="sFill" x1="0.18" y1="0" x2="0.82" y2="1">
      <stop offset="0%" stop-color="#fff8d4"/>
      <stop offset="20%" stop-color="#f0d27a"/>
      <stop offset="48%" stop-color="#d8b34f"/>
      <stop offset="78%" stop-color="#a07021"/>
      <stop offset="100%" stop-color="#3a1f04"/>
    </linearGradient>
    <linearGradient id="sBevel" x1="0.15" y1="0.05" x2="0.5" y2="0.45">
      <stop offset="0%" stop-color="#fff8d4" stop-opacity="0.85"/>
      <stop offset="50%" stop-color="#fff5c2" stop-opacity="0.25"/>
      <stop offset="100%" stop-color="#fff5c2" stop-opacity="0"/>
    </linearGradient>
    <linearGradient id="ringGold" x1="0" y1="0" x2="1" y2="1">
      <stop offset="0%" stop-color="#fff8d4"/>
      <stop offset="40%" stop-color="#d8b34f"/>
      <stop offset="100%" stop-color="#5e3608"/>
    </linearGradient>
    <linearGradient id="continentTone" x1="0" y1="0" x2="0" y2="1">
      <stop offset="0%" stop-color="#3a1f04" stop-opacity="0.85"/>
      <stop offset="100%" stop-color="#1a0d02" stop-opacity="0.95"/>
    </linearGradient>
    <radialGradient id="sparkleCore" cx="0.5" cy="0.5" r="0.5">
      <stop offset="0%" stop-color="#ffffff" stop-opacity="1"/>
      <stop offset="40%" stop-color="#fff5c2" stop-opacity="0.95"/>
      <stop offset="100%" stop-color="#fff5c2" stop-opacity="0"/>
    </radialGradient>
    <clipPath id="globeClip">
      <circle cx="160" cy="170" r="98"/>
    </clipPath>
  </defs>

  <g>
    <ellipse cx="160" cy="170" rx="138" ry="40" fill="none" stroke="url(#ringGold)" stroke-width="3" transform="rotate(-18 160 170)"/>
    <ellipse cx="160" cy="170" rx="138" ry="40" fill="none" stroke="#fff5c2" stroke-width="0.8" opacity="0.5" transform="rotate(-18 160 170)"/>
  </g>

  <circle cx="160" cy="170" r="98" fill="url(#sphere)"/>

  <g clip-path="url(#globeClip)" opacity="0.78">
    <path d="M 168 110 C 178 104, 192 108, 196 122 C 198 136, 192 148, 196 160 C 200 172, 196 184, 188 194 C 180 206, 176 218, 176 234 C 170 244, 158 246, 150 240 C 140 232, 134 218, 142 208 C 150 196, 152 184, 146 174 C 140 162, 142 146, 150 138 C 156 130, 164 116, 168 110 Z" fill="url(#continentTone)"/>
    <path d="M 200 104 C 218 100, 234 110, 238 124 C 244 138, 234 148, 222 152 C 210 156, 200 146, 196 138 C 192 128, 196 114, 200 104 Z" fill="url(#continentTone)"/>
    <path d="M 122 124 C 134 116, 146 122, 144 134 C 142 144, 134 150, 124 146 C 116 142, 114 132, 122 124 Z" fill="url(#continentTone)"/>
    <path d="M 96 156 C 106 150, 118 156, 116 168 C 114 184, 106 200, 96 214 C 88 226, 78 226, 72 220 C 66 210, 72 196, 80 182 C 88 170, 88 162, 96 156 Z" fill="url(#continentTone)"/>
    <path d="M 88 116 C 98 108, 112 114, 110 124 C 108 134, 96 134, 88 128 C 82 124, 80 120, 88 116 Z" fill="url(#continentTone)"/>
    <ellipse cx="222" cy="218" rx="14" ry="6" fill="url(#continentTone)"/>
  </g>

  <g clip-path="url(#globeClip)" stroke="#fff5c2" stroke-width="0.6" fill="none" opacity="0.45">
    <line x1="62" y1="170" x2="258" y2="170"/>
    <ellipse cx="160" cy="170" rx="98" ry="14"/>
    <ellipse cx="160" cy="138" rx="80" ry="8"/>
    <ellipse cx="160" cy="202" rx="80" ry="8"/>
    <ellipse cx="160" cy="170" rx="32" ry="98"/>
    <ellipse cx="160" cy="170" rx="64" ry="98"/>
  </g>

  <circle cx="160" cy="170" r="98" fill="url(#sphereGlow)"/>
  <circle cx="160" cy="170" r="98" fill="none" stroke="#5e3608" stroke-width="1.5" opacity="0.65"/>
  <circle cx="160" cy="170" r="98" fill="none" stroke="#fff8d4" stroke-width="0.6" opacity="0.5"/>

  <g>
    <path d="
      M 218 70
      C 218 44, 196 28, 162 28
      C 122 28, 96 50, 96 82
      C 96 106, 116 122, 162 132
      C 208 142, 226 158, 226 188
      C 226 220, 198 240, 162 240
      C 134 240, 112 230, 102 210
      C 100 206, 98 202, 100 198
      L 108 200
      C 116 218, 134 230, 162 230
      C 192 230, 212 216, 212 192
      C 212 170, 196 162, 162 154
      C 116 144, 80 124, 80 84
      C 80 46, 110 18, 162 18
      C 206 18, 232 36, 232 70
      C 232 72, 230 74, 228 74 Z"
      fill="url(#sFill)"/>
    <path d="
      M 218 70
      C 218 44, 196 28, 162 28
      C 122 28, 96 50, 96 82
      C 96 106, 116 122, 162 132
      C 208 142, 226 158, 226 188
      C 226 220, 198 240, 162 240
      C 134 240, 112 230, 102 210
      C 100 206, 98 202, 100 198
      L 108 200
      C 116 218, 134 230, 162 230
      C 192 230, 212 216, 212 192
      C 212 170, 196 162, 162 154
      C 116 144, 80 124, 80 84
      C 80 46, 110 18, 162 18
      C 206 18, 232 36, 232 70
      C 232 72, 230 74, 228 74 Z"
      fill="url(#sBevel)" opacity="0.7"/>
    <path d="
      M 226 64
      C 224 42, 204 28, 174 26
      C 144 24, 118 38, 108 60"
      fill="none" stroke="#fff8d4" stroke-width="1.2" stroke-linecap="round" opacity="0.65"/>
    <path d="
      M 96 200
      C 106 222, 130 234, 160 234
      C 192 234, 212 222, 220 202"
      fill="none" stroke="#1a0d02" stroke-width="1" stroke-linecap="round" opacity="0.55"/>
  </g>

  <g opacity="0.75">
    <path d="M 22 199 A 138 40 0 0 0 64 226" fill="none" stroke="url(#ringGold)" stroke-width="2.4" transform="rotate(-18 160 170)"/>
    <path d="M 256 141 A 138 40 0 0 0 298 168" fill="none" stroke="url(#ringGold)" stroke-width="2.4" transform="rotate(-18 160 170)"/>
  </g>

  <g transform="translate(238 38)">
    <circle r="9" fill="url(#sparkleCore)"/>
    <g stroke="#fff8d4" stroke-width="1" stroke-linecap="round" opacity="0.85">
      <line x1="-14" y1="0" x2="14" y2="0"/>
      <line x1="0" y1="-14" x2="0" y2="14"/>
      <line x1="-9" y1="-9" x2="9" y2="9" opacity="0.5"/>
      <line x1="-9" y1="9" x2="9" y2="-9" opacity="0.5"/>
    </g>
    <circle r="2.4" fill="#ffffff"/>
  </g>
</svg>
